<svg width="34" height="34" viewBox="0 0 34 34" fill="none" xmlns="http://www.w3.org/2000/svg">
<path fill-rule="evenodd" clip-rule="evenodd" d="M17.3394 5.14453C13.776 5.14453 10.8828 8.03776 10.8828 11.6011C10.8828 15.1643 13.776 18.0577 17.3394 18.0577C20.9028 18.0577 23.796 15.1643 23.796 11.6011C23.796 8.03776 20.9028 5.14453 17.3394 5.14453ZM17.3394 6.57925C20.1106 6.57925 22.3613 8.82971 22.3613 11.6011C22.3613 14.3723 20.1106 16.6228 17.3394 16.6228C14.5682 16.6228 12.3175 14.3723 12.3175 11.6011C12.3175 8.82971 14.5682 6.57925 17.3394 6.57925Z" fill="white"/>
<path fill-rule="evenodd" clip-rule="evenodd" d="M17.3398 0.839844C8.23296 0.839844 0.839844 8.23296 0.839844 17.3398C0.839844 26.4467 8.23296 33.8398 17.3398 33.8398C26.4467 33.8398 33.8398 26.4467 33.8398 17.3398C33.8398 8.23296 26.4467 0.839844 17.3398 0.839844ZM28.2681 27.7055C26.2715 23.6895 22.1257 20.9266 17.3398 20.9266C12.554 20.9266 8.40821 23.6894 6.41158 27.7055C9.15705 30.5996 13.0397 32.4052 17.3398 32.4052C21.6399 32.4052 25.5225 30.5997 28.2681 27.7055ZM29.2724 26.5333C31.2367 23.9886 32.4053 20.8 32.4053 17.3397C32.4053 9.02546 25.6542 2.27432 17.3399 2.27432C9.02565 2.27432 2.2745 9.02546 2.2745 17.3397C2.2745 20.7998 3.44308 23.9882 5.40743 26.5333C7.73113 22.3365 12.2059 19.4919 17.3398 19.4919C22.4738 19.4919 26.9485 22.3364 29.2723 26.5333H29.2724Z" fill="white"/>
</svg>
